# xmcd CD database file
#
# Track frame offsets:
#	182
#	5280
#	33270
#	66277
#	86637
#	105232
#	133342
#	144865
#	169635
#	179677
#
# Disc length: 2851 seconds
#
# Revision: 3
# Processed by: cddbd v1.5.2PL0 Copyright (c) Steve Scherf et al.
# Submitted via: CDex 1.92
#
DISCID=7d0b210a
DTITLE=Oio - Anima
DYEAR=1991
DGENRE=New Age
TTITLE0=Ohiana
TTITLE1=Almeria
TTITLE2=Sohoro
TTITLE3=Anima
TTITLE4=Altalena
TTITLE5=Argia
TTITLE6=Kalimba
TTITLE7=Oio
TTITLE8=Zirrinta
TTITLE9=Iduzkia
EXTD=Label: BMG Ariola Media GmbH\n262 554 YEAR: 1991
EXTT0=
EXTT1=
EXTT2=
EXTT3=
EXTT4=
EXTT5=
EXTT6=
EXTT7=
EXTT8=
EXTT9=
PLAYORDER=
